<?xml version="1.0" standalone="no"?>
<!DOCTYPE svg PUBLIC "-//W3C//DTD SVG 20010904//EN"
 "http://www.w3.org/TR/2001/REC-SVG-20010904/DTD/svg10.dtd">
<svg version="1.0" xmlns="http://www.w3.org/2000/svg"
 width="1280.000000pt" height="1271.000000pt" viewBox="0 0 1280.000000 1271.000000"
 preserveAspectRatio="xMidYMid meet">
<g transform="translate(0.000000,1271.000000) scale(0.100000,-0.100000)"
fill="#000000" stroke="none">
<path d="M745 12700 c-3 -6 -4 -31 -1 -58 4 -35 3 -41 -4 -22 -6 18 -8 7 -5
-40 3 -52 2 -58 -5 -30 -7 27 -8 18 -5 -40 2 -52 1 -66 -5 -45 -5 20 -7 1 -5
-60 2 -70 1 -79 -5 -40 -5 33 -7 2 -5 -90 2 -99 0 -120 -4 -70 -5 49 -7 14 -7
-115 0 -143 1 -166 7 -100 5 67 6 55 4 -60 -1 -93 1 -131 6 -105 6 30 7 21 4
-35 -3 -53 -1 -68 5 -50 7 19 8 11 5 -30 -3 -42 -2 -49 5 -30 7 19 8 14 5 -25
-3 -32 -2 -43 4 -30 7 16 9 14 15 -19 4 -21 5 -41 2 -44 -3 -3 -6 6 -7 19 0
13 -3 18 -6 12 -11 -28 128 -455 144 -440 2 3 -1 15 -7 27 -6 12 -10 23 -8 26
3 2 18 -28 35 -66 34 -76 36 -93 4 -32 -11 20 -20 33 -21 29 0 -5 5 -17 11
-29 6 -11 8 -22 6 -25 -12 -11 -69 31 -86 65 -31 59 -82 126 -171 223 -60 66
-88 89 -101 86 -10 -3 -17 0 -16 5 1 6 -4 13 -12 16 -9 3 -11 0 -6 -9 5 -8 -6
-1 -23 15 -18 17 -32 32 -32 35 0 2 12 -6 26 -20 25 -22 25 -21 -4 19 -17 24
-36 59 -42 78 -7 20 -14 33 -17 31 -2 -3 5 -27 16 -54 13 -30 15 -41 6 -28
-19 25 -77 204 -71 219 2 6 5 2 5 -8 1 -11 3 -17 6 -14 3 3 1 27 -6 53 -7 28
-15 42 -19 34 -5 -7 -10 0 -15 19 -3 18 -4 36 0 41 3 6 0 31 -6 56 -7 26 -15
42 -19 36 -3 -7 -14 16 -24 50 -9 34 -14 64 -11 67 3 3 5 -3 6 -14 0 -10 3
-14 5 -8 2 5 -2 28 -10 50 -8 21 -15 32 -16 24 -1 -8 -8 1 -15 20 -15 39 -19
78 -5 45 6 -13 9 -15 9 -5 1 25 -15 42 -35 38 -16 -3 -19 -12 -17 -68 1 -48
-1 -58 -8 -40 -6 19 -8 13 -5 -25 2 -27 1 -41 -2 -30 -3 11 -22 -61 -44 -160
-48 -223 -60 -396 -34 -518 52 -253 243 -508 623 -834 60 -52 81 -65 67 -40
-6 10 -4 10 7 0 19 -19 27 -16 32 12 4 23 4 23 3 -2 -1 -21 -6 -28 -19 -27
-18 2 -18 1 0 -18 17 -19 18 -19 26 9 4 15 5 48 2 73 -3 32 -2 39 5 25 6 -14
8 0 5 45 -3 47 -2 54 3 25 4 -23 7 30 7 126 0 92 -3 162 -7 155 -5 -6 -8 -2
-8 11 0 16 4 21 15 17 11 -5 14 -2 8 12 -4 11 16 -6 44 -36 78 -86 113 -127
113 -134 0 -3 -32 30 -71 74 -38 44 -73 80 -76 80 -3 0 19 -27 49 -61 29 -33
79 -92 111 -130 l58 -71 -31 -34 c-37 -43 -44 -70 -37 -145 4 -49 24 -98 110
-277 135 -277 189 -413 189 -472 0 -37 2 -40 8 -20 5 15 7 -11 5 -65 -3 -70
-2 -80 5 -45 6 34 7 18 5 -60 -2 -78 -1 -94 5 -60 7 36 8 28 5 -40 -2 -58 -1
-77 6 -60 6 19 7 13 3 -22 -3 -26 -2 -64 2 -85 6 -32 8 -35 16 -18 5 14 6 8 3
-18 -6 -39 17 -139 57 -249 21 -58 35 -78 24 -35 -7 26 -2 16 51 -98 17 -38
46 -95 64 -125 44 -75 33 -63 -96 111 -146 196 -325 486 -325 524 0 6 22 -30
48 -80 73 -136 217 -363 255 -400 17 -17 -2 14 -68 110 -136 198 -232 380
-281 535 -22 67 -42 104 -95 175 -105 139 -241 287 -329 357 -75 61 -201 139
-245 153 -11 4 14 -12 55 -35 108 -60 205 -136 303 -237 87 -89 277 -320 277
-337 0 -5 -23 22 -52 60 -214 285 -398 449 -607 540 -42 19 -69 34 -61 35 10
0 8 3 -5 9 -28 12 -43 12 -25 -1 12 -9 12 -10 -3 -5 -10 3 -24 6 -30 6 -7 0
-6 5 3 11 12 8 10 10 -10 5 -14 -2 -41 -1 -60 4 -30 7 -31 8 -10 10 21 2 20 3
-10 10 -19 5 -57 7 -85 5 -43 -4 -45 -3 -15 4 l35 8 -35 2 c-19 1 -53 4 -75 8
l-40 6 106 -114 c344 -372 524 -633 595 -862 12 -37 21 -53 26 -45 5 8 6 -7 3
-32 -3 -26 -2 -35 3 -22 4 13 7 -31 7 -97 0 -66 -3 -112 -7 -103 -5 14 -7 14
-7 -4 -1 -12 -17 -53 -36 -92 -33 -64 -36 -78 -32 -139 l3 -68 2 71 c2 58 8
81 32 125 16 30 30 50 30 44 0 -5 -11 -29 -24 -51 -22 -38 -24 -56 -29 -220
-3 -103 -1 -153 3 -119 6 50 7 44 5 -40 -2 -67 0 -90 6 -70 6 21 7 10 4 -40
-3 -52 -1 -62 5 -40 7 23 8 16 5 -30 -3 -43 -2 -54 5 -40 7 15 8 7 5 -30 -3
-30 -2 -40 3 -26 6 20 10 12 20 -40 23 -111 24 -117 13 -94 -12 26 -13 -2 -1
-30 6 -14 9 -15 10 -5 1 8 19 -37 40 -100 44 -129 47 -143 19 -85 -10 22 -16
29 -13 15 4 -14 15 -43 25 -65 11 -22 16 -29 13 -15 -10 40 1 21 41 -70 47
-109 52 -126 21 -70 -14 25 -25 41 -25 35 -1 -5 9 -28 22 -50 28 -50 64 -139
72 -184 5 -21 10 -29 15 -21 5 8 9 4 14 -13 3 -14 8 -33 11 -44 3 -10 -1 -4
-9 12 -20 39 -20 17 -1 -26 8 -19 15 -27 15 -19 1 8 10 -7 21 -34 11 -27 18
-51 15 -53 -2 -2 -9 12 -16 32 -7 20 -14 34 -17 31 -6 -6 87 -225 99 -232 5
-4 3 8 -6 24 -9 17 -16 35 -16 39 1 4 10 -10 22 -31 l20 -40 -29 -25 c-281
-245 -393 -359 -440 -447 -84 -159 -126 -354 -143 -670 -23 -438 -31 -552 -43
-619 -8 -48 -11 -268 -11 -715 -1 -678 8 -896 55 -1350 11 -107 22 -223 26
-258 6 -62 7 -63 78 -130 91 -87 233 -188 439 -312 246 -148 629 -354 744
-399 316 -126 693 -228 1517 -411 491 -109 633 -144 693 -170 l46 -20 205 84
c231 95 348 132 467 148 190 24 357 -44 487 -200 26 -31 47 -60 47 -64 0 -4
28 -26 63 -49 146 -98 271 -211 592 -534 420 -423 515 -505 685 -590 41 -21
158 -90 260 -154 316 -200 397 -244 526 -286 151 -49 297 -43 352 16 31 34
339 185 822 404 179 81 391 180 472 221 418 209 862 393 1683 698 837 311 960
359 1030 397 39 20 179 85 312 143 362 157 441 202 551 309 148 145 176 273
152 689 -17 276 2 253 -306 374 -185 72 -248 102 -291 138 -16 14 -138 83
-270 155 -132 71 -469 257 -749 413 -280 157 -548 306 -596 332 -85 46 -87 48
-92 89 -77 591 -164 966 -365 1557 -133 393 -477 1272 -539 1375 -104 175
-249 331 -605 652 -264 238 -513 416 -962 688 -126 76 -301 183 -387 236 -86
53 -172 102 -190 107 -18 6 -94 12 -170 14 -106 4 -142 8 -162 21 -14 10 -26
23 -26 31 0 7 -38 114 -84 237 -46 123 -129 348 -186 499 -56 151 -137 367
-180 480 -43 113 -123 322 -178 465 -55 143 -107 294 -115 335 -23 111 -78
266 -187 530 -54 129 -101 245 -105 257 -6 21 -8 22 -30 7 -40 -26 -288 -79
-850 -179 -476 -85 -779 -142 -880 -165 -44 -10 -143 -28 -220 -40 -77 -12
-288 -46 -468 -76 -181 -31 -334 -53 -341 -51 -6 3 -19 29 -29 59 -17 55 -68
139 -129 213 -18 22 -25 34 -16 27 9 -7 36 -39 59 -70 55 -74 66 -85 43 -44
-33 58 -103 130 -243 251 -75 65 -142 125 -150 134 -15 19 -29 21 -49 8 -11
-6 1 -44 54 -172 143 -348 152 -381 119 -425 -8 -10 -15 -28 -15 -39 0 -18
-12 -24 -77 -39 -43 -9 -114 -26 -158 -36 -44 -11 -89 -20 -100 -22 -22 -3
-145 119 -204 203 -38 54 -73 82 -155 126 -73 38 -67 44 7 7 73 -37 122 -78
159 -133 31 -46 178 -205 178 -192 0 4 -27 33 -61 66 -33 33 -76 83 -95 112
-67 100 -143 150 -317 212 -49 17 -94 31 -100 30 -7 0 11 -9 38 -19 74 -27 40
-24 -41 4 -38 14 -62 25 -54 26 10 1 9 4 -5 10 -28 12 -43 12 -25 -1 11 -8 9
-9 -10 -3 -48 13 -131 46 -127 50 2 2 21 -3 42 -11 20 -9 39 -14 41 -12 3 2
-19 13 -48 25 -83 32 -96 35 -68 18 30 -18 21 -21 -14 -5 -14 7 -23 15 -21 19
2 4 -8 12 -23 19 -26 11 -26 11 -7 -5 28 -22 13 -16 -84 36 -195 105 -415 306
-582 530 -89 120 -205 295 -215 327 -4 10 16 -18 44 -62 200 -316 397 -542
598 -686 78 -56 194 -125 194 -116 0 2 -35 25 -78 50 -154 89 -333 251 -475
427 -64 80 -216 299 -264 383 -22 37 -37 45 -48 27z m18 -20 c-3 -12 -8 -19
-11 -16 -5 6 5 36 12 36 2 0 2 -9 -1 -20z m-546 -487 c-3 -10 -5 -2 -5 17 0
19 2 27 5 18 2 -10 2 -26 0 -35z m2765 -412 c49 -41 86 -76 83 -79 -5 -5 -141
115 -235 207 l-65 64 65 -59 c36 -32 104 -92 152 -133z m-2655 157 c-3 -8 -6
-5 -6 6 -1 11 2 17 5 13 3 -3 4 -12 1 -19z m40 -150 c-3 -8 -6 -5 -6 6 -1 11
2 17 5 13 3 -3 4 -12 1 -19z m1763 -180 c10 -6 7 -7 -10 -2 -14 3 -32 11 -40
16 -10 6 -7 7 10 2 14 -3 32 -11 40 -16z m-1363 -80 c-3 -8 -6 -5 -6 6 -1 11
2 17 5 13 3 -3 4 -12 1 -19z m10 -40 c-3 -8 -6 -5 -6 6 -1 11 2 17 5 13 3 -3
4 -12 1 -19z m-135 -120 c81 -91 149 -179 167 -218 10 -21 10 -22 -1 -6 -43
64 -136 180 -190 239 -35 37 -61 67 -57 67 4 0 40 -37 81 -82z m155 50 c-3 -8
-6 -5 -6 6 -1 11 2 17 5 13 3 -3 4 -12 1 -19z m47 -128 c5 -17 4 -20 -2 -10
-5 8 -13 26 -16 40 -5 17 -4 20 2 10 5 -8 13 -26 16 -40z m76 -236 c0 -2 -13
2 -30 11 -16 9 -30 18 -30 21 0 2 14 -2 30 -11 17 -9 30 -18 30 -21z m264
-640 c3 -8 2 -12 -4 -9 -6 3 -10 10 -10 16 0 14 7 11 14 -7z m-874 -329 c118
-138 250 -318 294 -400 30 -56 27 -51 -63 84 -81 123 -216 290 -370 459 -66
73 -121 135 -121 137 0 10 153 -156 260 -280z m-103 259 c-3 -3 -12 -4 -19 -1
-8 3 -5 6 6 6 11 1 17 -2 13 -5z m900 -716 c-3 -8 -6 -5 -6 6 -1 11 2 17 5 13
3 -3 4 -12 1 -19z m-441 -49 c14 -28 24 -53 22 -55 -2 -2 -16 21 -31 51 -15
30 -25 55 -22 55 3 0 16 -23 31 -51z m484 -64 c0 -5 -5 -3 -10 5 -5 8 -10 20
-10 25 0 6 5 3 10 -5 5 -8 10 -19 10 -25z m-415 -110 c3 -16 -6 -1 -19 35 -14
36 -25 67 -25 70 1 11 38 -77 44 -105z m435 60 c0 -5 -5 -3 -10 5 -5 8 -10 20
-10 25 0 6 5 3 10 -5 5 -8 10 -19 10 -25z m227 -112 c-3 -10 -5 -2 -5 17 0 19
2 27 5 18 2 -10 2 -26 0 -35z m20 -105 c-3 -7 -5 -2 -5 12 0 14 2 19 5 13 2
-7 2 -19 0 -25z m-650 -75 c-2 -21 -4 -6 -4 32 0 39 2 55 4 38 2 -18 2 -50 0
-70z m677 -13 c4 -24 3 -29 -3 -15 -4 11 -11 36 -15 55 -4 24 -3 29 3 15 4
-11 11 -36 15 -55z m25 -85 c0 -5 -4 -3 -9 5 -5 8 -9 22 -9 30 0 16 17 -16 18
-35z m-360 -1780 c0 -5 -8 6 -19 25 -11 19 -19 40 -19 45 0 6 8 -6 19 -25 11
-19 19 -39 19 -45z m11541 -4302 c0 -5 -18 -18 -40 -31 -51 -29 -52 -20 -2 12
43 29 42 28 42 19z m-930 -568 c0 -2 -10 -9 -22 -15 -22 -11 -22 -10 -4 4 21
17 26 19 26 11z m-50 -30 c0 -2 -10 -9 -22 -15 -22 -11 -22 -10 -4 4 21 17 26
19 26 11z m-3935 -2335 c7 -12 -2 -12 -30 0 -19 8 -19 9 2 9 12 1 25 -3 28 -9z"/>
<path d="M311 12014 c0 -11 3 -14 6 -6 3 7 2 16 -1 19 -3 4 -6 -2 -5 -13z"/>
<path d="M351 11864 c0 -11 3 -14 6 -6 3 7 2 16 -1 19 -3 4 -6 -2 -5 -13z"/>
<path d="M391 11714 c0 -11 3 -14 6 -6 3 7 2 16 -1 19 -3 4 -6 -2 -5 -13z"/>
<path d="M3218 11500 c9 -21 18 -35 20 -30 3 9 -25 70 -33 70 -2 0 4 -18 13
-40z"/>
<path d="M3241 11445 c1 -19 18 -51 18 -35 0 8 -4 22 -9 30 -5 8 -9 11 -9 5z"/>
<path d="M21 11424 c0 -11 3 -14 6 -6 3 7 2 16 -1 19 -3 4 -6 -2 -5 -13z"/>
<path d="M80 11241 c0 -6 4 -13 10 -16 6 -3 7 1 4 9 -7 18 -14 21 -14 7z"/>
<path d="M230 11006 c0 -2 8 -10 18 -17 15 -13 16 -12 3 4 -13 16 -21 21 -21
13z"/>
<path d="M290 10935 c13 -14 26 -25 28 -25 3 0 -5 11 -18 25 -13 14 -26 25
-28 25 -3 0 5 -11 18 -25z"/>
<path d="M883 10830 c0 -47 2 -66 4 -42 2 23 2 61 0 85 -2 23 -4 4 -4 -43z"/>
<path d="M410 10290 c8 -5 20 -10 25 -10 6 0 3 5 -5 10 -8 5 -19 10 -25 10 -5
0 -3 -5 5 -10z"/>
<path d="M1498 8949 c-4 -9 4 -28 18 -45 l25 -29 -14 30 c-8 17 -16 37 -19 44
-4 13 -5 13 -10 0z"/>
<path d="M731 8294 c0 -11 3 -14 6 -6 3 7 2 16 -1 19 -3 4 -6 -2 -5 -13z"/>
<path d="M742 8250 c0 -14 2 -19 5 -12 2 6 2 18 0 25 -3 6 -5 1 -5 -13z"/>
<path d="M781 8104 c0 -11 3 -14 6 -6 3 7 2 16 -1 19 -3 4 -6 -2 -5 -13z"/>
<path d="M861 7885 c0 -5 6 -21 14 -35 8 -14 14 -20 14 -15 0 6 -6 21 -14 35
-8 14 -14 21 -14 15z"/>
</g>
</svg>
